<?xml version="1.0" encoding="UTF-8" standalone="no"?>
<!-- Created with Inkscape (http://www.inkscape.org/) -->

<svg
   xmlns:dc="http://purl.org/dc/elements/1.1/"
   xmlns:cc="http://creativecommons.org/ns#"
   xmlns:rdf="http://www.w3.org/1999/02/22-rdf-syntax-ns#"
   xmlns:svg="http://www.w3.org/2000/svg"
   xmlns="http://www.w3.org/2000/svg"
   xmlns:sodipodi="http://sodipodi.sourceforge.net/DTD/sodipodi-0.dtd"
   xmlns:inkscape="http://www.inkscape.org/namespaces/inkscape"
   sodipodi:docname="optical_bench_1.svg"
   inkscape:version="0.48.2 r9819"
   version="1.1"
   id="svg2993"
   height="265.5"
   width="429.29999">
  <sodipodi:namedview
     id="base"
     pagecolor="#ffb4ff"
     bordercolor="#666666"
     borderopacity="1.0"
     inkscape:pageopacity="0"
     inkscape:pageshadow="2"
     inkscape:zoom="3.959798"
     inkscape:cx="21.855982"
     inkscape:cy="118.7979"
     inkscape:document-units="cm"
     inkscape:current-layer="layer1"
     showgrid="true"
     units="in"
     inkscape:window-width="1366"
     inkscape:window-height="738"
     inkscape:window-x="0"
     inkscape:window-y="30"
     inkscape:window-maximized="0"
     inkscape:snap-object-midpoints="true"
     inkscape:snap-center="false"
     showguides="true"
     inkscape:guide-bbox="true"
     inkscape:snap-smooth-nodes="false"
     inkscape:snap-nodes="true"
     inkscape:object-paths="false"
     inkscape:snap-intersection-paths="false">
    <inkscape:grid
       spacingy="1mm"
       spacingx="1mm"
       units="mm"
       snapvisiblegridlinesonly="true"
       enabled="true"
       visible="true"
       empspacing="5"
       id="grid3001"
       type="xygrid" />
  </sodipodi:namedview>
  <defs
     id="defs2995">
    <marker
       style="overflow:visible"
       id="Arrow1Mstart"
       refX="0.0"
       refY="0.0"
       orient="auto"
       inkscape:stockid="Arrow1Mstart">
      <path
         transform="scale(0.4) translate(10,0)"
         style="fill-rule:evenodd;stroke:#000000;stroke-width:1.0pt;marker-start:none"
         d="M 0.0,0.0 L 5.0,-5.0 L -12.5,0.0 L 5.0,5.0 L 0.0,0.0 z "
         id="path3788" />
    </marker>
    <marker
       style="overflow:visible;"
       id="Arrow1Mend"
       refX="0.0"
       refY="0.0"
       orient="auto"
       inkscape:stockid="Arrow1Mend">
      <path
         transform="scale(0.4) rotate(180) translate(10,0)"
         style="fill-rule:evenodd;stroke:#000000;stroke-width:1.0pt;marker-start:none;"
         d="M 0.0,0.0 L 5.0,-5.0 L -12.5,0.0 L 5.0,5.0 L 0.0,0.0 z "
         id="path3791" />
    </marker>
  </defs>
  <metadata
     id="metadata2998">
    <rdf:RDF>
      <cc:Work
         rdf:about="">
        <dc:format>image/svg+xml</dc:format>
        <dc:type
           rdf:resource="http://purl.org/dc/dcmitype/StillImage" />
        <dc:title></dc:title>
        <dc:creator>
          <cc:Agent>
            <dc:title>Bertrand Delforge</dc:title>
          </cc:Agent>
        </dc:creator>
        <cc:license
           rdf:resource="http://creativecommons.org/licenses/by-nc/3.0/" />
      </cc:Work>
      <cc:License
         rdf:about="http://creativecommons.org/licenses/by-nc/3.0/">
        <cc:permits
           rdf:resource="http://creativecommons.org/ns#Reproduction" />
        <cc:permits
           rdf:resource="http://creativecommons.org/ns#Distribution" />
        <cc:requires
           rdf:resource="http://creativecommons.org/ns#Notice" />
        <cc:requires
           rdf:resource="http://creativecommons.org/ns#Attribution" />
        <cc:prohibits
           rdf:resource="http://creativecommons.org/ns#CommercialUse" />
        <cc:permits
           rdf:resource="http://creativecommons.org/ns#DerivativeWorks" />
      </cc:License>
    </rdf:RDF>
  </metadata>
  <g
     sodipodi:insensitive="true"
     transform="translate(0,88.335)"
     style="display:none"
     inkscape:label="White background"
     id="layer2"
     inkscape:groupmode="layer">
    <rect
       inkscape:label="#background"
       y="-88.334656"
       x="0"
       height="265.5"
       width="429.29999"
       id="Background"
       style="fill:#ffffff;fill-opacity:1;stroke:none;display:inline">
      <desc
         id="desc3813">Without a white background wide enough to encompass the drawing and the rendered LaTeX text, the export as eps+latex fails when text appears outside the drawing.</desc>
      <title
         id="title3811">White background</title>
    </rect>
  </g>
  <g
     inkscape:groupmode="layer"
     id="layer4"
     inkscape:label="cavities"
     style="display:inline"
     sodipodi:insensitive="true">
    <rect
       style="fill:#b3b3b3;fill-opacity:1;stroke:none;display:inline"
       id="rect5065"
       width="46.062992"
       height="7.0866141"
       x="74.409447"
       y="120.22441" />
    <rect
       y="120.22441"
       x="127.55905"
       height="7.0866141"
       width="10.629926"
       id="rect5067"
       style="fill:#b3b3b3;fill-opacity:1;stroke:none;display:inline" />
    <rect
       y="121.99606"
       x="145.27559"
       height="3.5433071"
       width="56.692917"
       id="rect5083"
       style="fill:#b3b3b3;fill-opacity:1;stroke:none;display:inline" />
    <rect
       style="fill:#b3b3b3;fill-opacity:1;stroke:none;display:inline"
       id="rect5087"
       width="74.409454"
       height="3.5433071"
       x="127.55905"
       y="132.62599" />
    <rect
       y="109.59449"
       x="74.409447"
       height="7.0866141"
       width="63.779526"
       id="rect5089"
       style="fill:#b3b3b3;fill-opacity:1;stroke:none;display:inline" />
    <rect
       y="100.73622"
       x="74.409447"
       height="3.5433071"
       width="127.55905"
       id="rect5091"
       style="fill:#b3b3b3;fill-opacity:1;stroke:none;display:inline" />
    <rect
       style="fill:#b3b3b3;fill-opacity:1;stroke:none;display:inline"
       id="rect5093"
       width="205.5118"
       height="1.7716535"
       x="74.409454"
       y="80.362206" />
    <rect
       y="69.732285"
       x="74.409447"
       height="1.7716535"
       width="223.22836"
       id="rect5095"
       style="fill:#b3b3b3;fill-opacity:1;stroke:none;display:inline" />
    <rect
       style="fill:#b3b3b3;fill-opacity:1;stroke:none;display:inline"
       id="rect5097"
       width="276.37796"
       height="1.7716535"
       x="74.409447"
       y="61.759842" />
    <rect
       style="fill:#b3b3b3;fill-opacity:1;stroke:none;display:inline"
       id="rect5099"
       width="141.73228"
       height="3.5433071"
       x="74.409454"
       y="90.1063" />
    <rect
       style="fill:#b3b3b3;fill-opacity:1;stroke:none;display:inline"
       id="rect5101"
       width="7.0866156"
       height="7.0866141"
       x="209.05511"
       y="120.22441" />
    <rect
       y="143.25591"
       x="127.55905"
       height="3.5433071"
       width="88.582672"
       id="rect5166"
       style="fill:#b3b3b3;fill-opacity:1;stroke:none;display:inline" />
    <rect
       style="fill:#b3b3b3;fill-opacity:1;stroke:none;display:inline"
       id="rect5168"
       width="152.36221"
       height="1.7716535"
       x="127.55905"
       y="154.77165" />
    <rect
       y="165.40158"
       x="127.55904"
       height="1.7716535"
       width="170.07877"
       id="rect5170"
       style="fill:#b3b3b3;fill-opacity:1;stroke:none;display:inline" />
    <rect
       style="fill:#b3b3b3;fill-opacity:1;stroke:none;display:inline"
       id="rect5172"
       width="223.22835"
       height="1.7716535"
       x="127.55905"
       y="176.03149" />
    <text
       xml:space="preserve"
       style="font-size:12px;font-style:normal;font-variant:normal;font-weight:normal;font-stretch:normal;text-align:center;line-height:125%;letter-spacing:0px;word-spacing:0px;writing-mode:lr-tb;text-anchor:middle;fill:#000000;fill-opacity:1;stroke:none;font-family:LMRoman12;-inkscape-font-specification:LMRoman12"
       x="159.44882"
       y="212.35039"
       id="text5254"
       sodipodi:linespacing="125%"><tspan
         sodipodi:role="line"
         id="tspan5256"
         x="159.44882"
         y="212.35039">attenuator</tspan></text>
    <text
       sodipodi:linespacing="125%"
       id="text5258"
       y="212.35039"
       x="265.74802"
       style="font-size:12px;font-style:normal;font-variant:normal;font-weight:normal;font-stretch:normal;text-align:center;line-height:125%;letter-spacing:0px;word-spacing:0px;writing-mode:lr-tb;text-anchor:middle;fill:#000000;fill-opacity:1;stroke:none;font-family:LMRoman12;-inkscape-font-specification:LMRoman12"
       xml:space="preserve"><tspan
         y="212.35039"
         x="265.74802"
         id="tspan5260"
         sodipodi:role="line">attenuator</tspan></text>
  </g>
  <g
     style="display:inline"
     transform="translate(0,-786.862)"
     id="layer1"
     inkscape:groupmode="layer"
     inkscape:label="Layer 1">
    <path
       style="color:#000000;fill:none;stroke:#4d4d4d;stroke-width:1.77165353;stroke-linecap:butt;stroke-linejoin:miter;stroke-miterlimit:4;stroke-opacity:1;stroke-dasharray:none;stroke-dashoffset:0;marker:none;visibility:visible;display:inline;overflow:visible;enable-background:accumulate"
       d="m 350.7874,120.22441 -56.69291,-14.17323 c -49.60417,0 -113.38796,0 -162.99213,0 l -56.692911,14.17323 m 0,7.08661 56.692911,14.17323 c 49.60417,0 113.38796,-2e-5 162.99213,-2e-5 l 56.69291,-14.17321"
       id="path5036"
       inkscape:connector-curvature="0"
       sodipodi:nodetypes="cccccccc"
       transform="translate(0,786.862)" />
    <path
       id="path4901"
       title="x**2"
       d="m 124.01575,159.20079 c 0.37496,-0.37495 0.74396,-0.74991 1.10701,-1.12486 0.36305,-0.37495 0.72015,-0.74991 1.07129,-1.12486 0.35115,-0.37495 0.69634,-0.74991 1.03559,-1.12486 0.33924,-0.37495 0.67253,-0.7499 0.99987,-1.12486 0.32734,-0.37495 0.64873,-0.7499 0.96417,-1.12486 0.31543,-0.37495 0.62492,-0.7499 0.92845,-1.12486 0.30354,-0.37495 0.60112,-0.7499 0.89275,-1.12486 0.29163,-0.37495 0.57731,-0.7499 0.85704,-1.12486 0.27972,-0.37495 0.5535,-0.7499 0.82132,-1.12485 0.26782,-0.37496 0.5297,-0.74991 0.78562,-1.12486 0.25592,-0.37496 0.50589,-0.74991 0.7499,-1.12486 0.24402,-0.37496 0.48209,-0.74991 0.7142,-1.12486 0.23211,-0.37496 0.45828,-0.74991 0.67849,-1.12486 0.22021,-0.37496 0.43447,-0.74991 0.64277,-1.12486 0.20831,-0.37495 0.41067,-0.74991 0.60707,-1.12486 0.1964,-0.37495 0.38686,-0.74991 0.57136,-1.12486 0.1845,-0.37495 0.36305,-0.74991 0.53565,-1.12486 0.17259,-0.37495 0.33924,-0.74991 0.49993,-1.12486 0.1607,-0.37495 0.31544,-0.74991 0.46423,-1.12486 0.14879,-0.37495 0.29163,-0.7499 0.42852,-1.12486 0.13689,-0.37495 0.26782,-0.7499 0.39281,-1.12486 0.12498,-0.37495 0.24401,-0.7499 0.35709,-1.12486 0.11309,-0.37495 0.22022,-0.7499 0.32139,-1.12486 0.10118,-0.37495 0.19641,-0.7499 0.28568,-1.12486 0.0893,-0.37495 0.1726,-0.7499 0.24997,-1.12485 0.0774,-0.37496 0.14879,-0.74991 0.21426,-1.12486 0.0655,-0.37496 0.12498,-0.74991 0.17855,-1.12486 0.0536,-0.37496 0.10118,-0.74991 0.14284,-1.12486 0.0417,-0.37496 0.0774,-0.74991 0.10713,-1.12486 0.0298,-0.37496 0.0536,-0.74991 0.0714,-1.12486 0.0179,-0.37496 0.0298,-0.74991 0.0357,-1.12486 0.006,-0.37495 0.006,-0.74991 0,-1.12486 -0.006,-0.37495 -0.0179,-0.74991 -0.0357,-1.12486 -0.0179,-0.37495 -0.0417,-0.74991 -0.0714,-1.12486 -0.0298,-0.37495 -0.0655,-0.74991 -0.10713,-1.12486 -0.0417,-0.37495 -0.0893,-0.74991 -0.14284,-1.12486 -0.0536,-0.37495 -0.11308,-0.7499 -0.17855,-1.12486 -0.0655,-0.37495 -0.13689,-0.7499 -0.21426,-1.12486 -0.0774,-0.37495 -0.16069,-0.7499 -0.24997,-1.12486 -0.0893,-0.37495 -0.1845,-0.7499 -0.28568,-1.12486 -0.10117,-0.37495 -0.2083,-0.7499 -0.32139,-1.12486 -0.11308,-0.37495 -0.23211,-0.7499 -0.35709,-1.12485 -0.12499,-0.37496 -0.25592,-0.74991 -0.39281,-1.12486 -0.13689,-0.37496 -0.27973,-0.74991 -0.42852,-1.12486 -0.14879,-0.37496 -0.30353,-0.74991 -0.46423,-1.12486 -0.16069,-0.37496 -0.32734,-0.74991 -0.49993,-1.12486 -0.1726,-0.37496 -0.35115,-0.74991 -0.53565,-1.12486 -0.1845,-0.37495 -0.37496,-0.74991 -0.57136,-1.12486 -0.1964,-0.37495 -0.39876,-0.74991 -0.60707,-1.12487 -0.2083,-0.37495 -0.42256,-0.74991 -0.64277,-1.12486 -0.22021,-0.37495 -0.44638,-0.74992 -0.67849,-1.12487 -0.23211,-0.37495 -0.47018,-0.74991 -0.7142,-1.12486 -0.24401,-0.37495 -0.49398,-0.749906 -0.7499,-1.124866 -0.25592,-0.37495 -0.5178,-0.749897 -0.78562,-1.124857 -0.26782,-0.37495 -0.5416,-0.7499 -0.82132,-1.12486 -0.27973,-0.37495 -0.56541,-0.7499 -0.85704,-1.12486 -0.29163,-0.37495 -0.58921,-0.7499 -0.89275,-1.12486 -0.30353,-0.37495 -0.61302,-0.7499 -0.92845,-1.12486 -0.31544,-0.37495 -0.63683,-0.7499 -0.96417,-1.12485 -0.32734,-0.37496 -0.66063,-0.74991 -0.99987,-1.12486 -0.33925,-0.37496 -0.68444,-0.74991 -1.03559,-1.12486 -0.35114,-0.37496 -0.70824,-0.74991 -1.07129,-1.12486 -0.36305,-0.37496 -0.73205,-0.74991 -1.10701,-1.12486 z"
       style="fill:none;stroke:#000000;stroke-width:1.77165353;stroke-linecap:round;stroke-linejoin:round;stroke-miterlimit:4;stroke-opacity:1;stroke-dasharray:none;stroke-dashoffset:0"
       inkscape:connector-curvature="0"
       sodipodi:nodetypes="csssssssssssssssssssssssssssssssssssssssssssssssssssssssssssssscc"
       transform="translate(0,786.862)" />
    <path
       sodipodi:nodetypes="csssssssssssssssssssssssssssssssssssssssssssssssssssssssssssssscc"
       inkscape:connector-curvature="0"
       style="fill:none;stroke:#000000;stroke-width:1.77165341;stroke-linecap:round;stroke-linejoin:round;stroke-miterlimit:4;stroke-opacity:1;stroke-dasharray:none;stroke-dashoffset:0"
       d="m 301.1811,88.334623 c -0.37496,0.37495 -0.74396,0.74991 -1.10701,1.12486 -0.36305,0.37495 -0.72015,0.74991 -1.07129,1.12486 -0.35115,0.37495 -0.69635,0.74991 -1.03559,1.12486 -0.33924,0.37495 -0.67253,0.7499 -0.99987,1.12486 -0.32734,0.37495 -0.64873,0.7499 -0.96417,1.12486 -0.31544,0.37495 -0.62492,0.7499 -0.92845,1.12486 -0.30354,0.37495 -0.60112,0.7499 -0.89275,1.12486 -0.29163,0.37495 -0.57731,0.7499 -0.85704,1.12486 -0.27972,0.37495 -0.5535,0.7499 -0.82132,1.12485 -0.26783,0.37496 -0.5297,0.749907 -0.78562,1.124857 -0.25592,0.37496 -0.50589,0.74993 -0.7499,1.12488 -0.24402,0.37496 -0.48209,0.74991 -0.7142,1.12486 -0.23211,0.37496 -0.45828,0.74991 -0.67849,1.12486 -0.22021,0.37496 -0.43447,0.74991 -0.64277,1.12486 -0.20831,0.37495 -0.41067,0.74991 -0.60707,1.12486 -0.19641,0.37495 -0.38686,0.74991 -0.57136,1.12486 -0.1845,0.37495 -0.36305,0.74991 -0.53565,1.12486 -0.17259,0.37495 -0.33924,0.74991 -0.49993,1.12486 -0.1607,0.37495 -0.31544,0.74991 -0.46423,1.12486 -0.14879,0.37495 -0.29163,0.7499 -0.42852,1.12486 -0.13689,0.37495 -0.26782,0.7499 -0.39281,1.12486 -0.12498,0.37495 -0.24401,0.7499 -0.3571,1.12486 -0.11308,0.37495 -0.22021,0.7499 -0.32138,1.12486 -0.10118,0.37495 -0.19641,0.74991 -0.28568,1.12486 -0.0893,0.37496 -0.1726,0.74991 -0.24997,1.12485 -0.0774,0.37496 -0.14879,0.74991 -0.21426,1.12486 -0.0655,0.37496 -0.12498,0.74991 -0.17855,1.12487 -0.0536,0.37495 -0.10118,0.74991 -0.14284,1.12486 -0.0417,0.37496 -0.0774,0.74991 -0.10713,1.12486 -0.0298,0.37496 -0.0536,0.74991 -0.0714,1.12486 -0.0179,0.37496 -0.0298,0.74991 -0.0357,1.12486 -0.006,0.37495 -0.006,0.74991 0,1.12486 0.006,0.37495 0.0179,0.74991 0.0357,1.12486 0.0179,0.37495 0.0417,0.74991 0.0714,1.12486 0.0298,0.37495 0.0655,0.74991 0.10713,1.12486 0.0417,0.37495 0.0893,0.74991 0.14284,1.12486 0.0536,0.37495 0.11308,0.7499 0.17855,1.12486 0.0655,0.37495 0.13689,0.7499 0.21426,1.12486 0.0774,0.37495 0.16069,0.7499 0.24997,1.12486 0.0893,0.37495 0.1845,0.7499 0.28568,1.12486 0.10117,0.37495 0.2083,0.7499 0.32138,1.12486 0.11309,0.37495 0.23212,0.7499 0.3571,1.12485 0.12499,0.37496 0.25592,0.74991 0.39281,1.12486 0.13689,0.37496 0.27973,0.74991 0.42852,1.12486 0.14879,0.37496 0.30353,0.74991 0.46423,1.12486 0.16069,0.37496 0.32734,0.74991 0.49993,1.12486 0.1726,0.37496 0.35115,0.74991 0.53565,1.12486 0.1845,0.37495 0.37495,0.74991 0.57136,1.12486 0.1964,0.37495 0.39876,0.74991 0.60707,1.12486 0.2083,0.37495 0.42256,0.74991 0.64277,1.12486 0.22021,0.37495 0.44638,0.74991 0.67849,1.12486 0.23211,0.37495 0.47018,0.74991 0.7142,1.12486 0.24401,0.37495 0.49398,0.7499 0.7499,1.12486 0.25592,0.37495 0.51779,0.7499 0.78562,1.12486 0.26782,0.37495 0.5416,0.7499 0.82132,1.12486 0.27973,0.37495 0.56541,0.7499 0.85704,1.12486 0.29163,0.37495 0.58921,0.7499 0.89275,1.12486 0.30353,0.37495 0.61301,0.7499 0.92845,1.12486 0.31544,0.37495 0.63683,0.7499 0.96417,1.12485 0.32734,0.37496 0.66063,0.74991 0.99987,1.12486 0.33924,0.37496 0.68444,0.74991 1.03559,1.12486 0.35114,0.37496 0.70824,0.74991 1.07129,1.12486 0.36305,0.37496 0.73205,0.74991 1.10701,1.12486 z"
       title="x**2"
       id="path4948"
       transform="translate(0,786.862)" />
    <g
       id="g4980"
       transform="matrix(0.70710678,-0.70710678,0.70710678,0.70710678,194.68849,948.38755)">
      <path
         inkscape:connector-curvature="0"
         id="path4950"
         d="m 177.16535,141.48425 0,-35.43307"
         style="color:#000000;fill:none;stroke:#000000;stroke-width:1.77165353;stroke-linecap:butt;stroke-linejoin:miter;stroke-miterlimit:4;stroke-opacity:1;stroke-dasharray:none;stroke-dashoffset:0;marker:none;visibility:visible;display:inline;overflow:visible;enable-background:accumulate" />
      <path
         inkscape:connector-curvature="0"
         id="path4952"
         d="m 159.44882,123.76772 35.43307,0"
         style="color:#000000;fill:none;stroke:#000000;stroke-width:1.77165353;stroke-linecap:butt;stroke-linejoin:miter;stroke-miterlimit:4;stroke-opacity:1;stroke-dasharray:none;stroke-dashoffset:0;marker:none;visibility:visible;display:inline;overflow:visible;enable-background:accumulate" />
      <path
         d="m 194.8819,123.76772 a 17.716536,17.716536 0 1 1 -35.43308,0 17.716536,17.716536 0 1 1 35.43308,0 z"
         sodipodi:ry="17.716536"
         sodipodi:rx="17.716536"
         sodipodi:cy="123.76772"
         sodipodi:cx="177.16536"
         id="path4954"
         style="fill:none;stroke:#000000;stroke-width:1.77165353;stroke-linecap:round;stroke-linejoin:round;stroke-miterlimit:4;stroke-opacity:1;stroke-dasharray:none;stroke-dashoffset:0"
         sodipodi:type="arc" />
    </g>
    <path
       sodipodi:nodetypes="ccccccc"
       inkscape:connector-curvature="0"
       id="path4987"
       d="m 355.21653,88.334649 8.41535,17.716531 8.41536,0 0,35.43307 -8.41536,0 -8.41535,17.71654 z"
       style="color:#000000;fill:none;stroke:#000000;stroke-width:1.77165341;stroke-linecap:butt;stroke-linejoin:miter;stroke-miterlimit:4;stroke-opacity:1;stroke-dasharray:none;stroke-dashoffset:0;marker:none;visibility:visible;display:inline;overflow:visible;enable-background:accumulate"
       transform="translate(0,786.862)" />
    <path
       style="color:#000000;fill:none;stroke:#000000;stroke-width:1.77165365;stroke-linecap:butt;stroke-linejoin:miter;stroke-miterlimit:4;stroke-opacity:1;stroke-dasharray:none;stroke-dashoffset:0;marker:none;visibility:visible;display:inline;overflow:visible;enable-background:accumulate"
       d="m 69.980311,88.334649 -8.415349,17.716531 -8.415356,0 0,35.43307 8.415356,0 8.415349,17.71654 z"
       id="path4989"
       inkscape:connector-curvature="0"
       sodipodi:nodetypes="ccccccc"
       transform="translate(0,786.862)" />
    <g
       transform="matrix(0,-1,1,0,-35.185035,791.92893)"
       id="g5002">
      <path
         sodipodi:type="star"
         style="fill:#000000;fill-opacity:1;stroke:#000000;stroke-width:1.77165353;stroke-linecap:round;stroke-linejoin:round;stroke-miterlimit:4;stroke-opacity:1;stroke-dasharray:none;stroke-dashoffset:0"
         id="path5004"
         sodipodi:sides="3"
         sodipodi:cx="-124.01575"
         sodipodi:cy="52.901573"
         sodipodi:r1="17.716536"
         sodipodi:r2="8.8582687"
         sodipodi:arg1="0"
         sodipodi:arg2="1.0471976"
         inkscape:flatsided="false"
         inkscape:rounded="0"
         inkscape:randomized="0"
         d="m -106.29921,52.901573 -13.2874,7.671486 -13.2874,7.671484 -1e-5,-15.34297 1e-5,-15.34297 13.2874,7.671485 z"
         inkscape:transform-center-x="-4.4291334" />
      <path
         style="color:#000000;fill:none;stroke:#000000;stroke-width:1.77165353;stroke-linecap:butt;stroke-linejoin:miter;stroke-miterlimit:4;stroke-opacity:1;stroke-dasharray:none;stroke-dashoffset:0;marker:none;visibility:visible;display:inline;overflow:visible;enable-background:accumulate"
         d="m -106.29921,38.728346 0,28.346457"
         id="path5006"
         inkscape:connector-curvature="0" />
      <path
         style="color:#000000;fill:none;stroke:#000000;stroke-width:1.77165353;stroke-linecap:butt;stroke-linejoin:miter;stroke-miterlimit:4;stroke-opacity:1;stroke-dasharray:none;stroke-dashoffset:0;marker:none;visibility:visible;display:inline;overflow:visible;enable-background:accumulate"
         d="m -141.73228,52.901575 46.06299,0"
         id="path5008"
         inkscape:connector-curvature="0" />
    </g>
    <text
       xml:space="preserve"
       style="font-size:12px;font-style:normal;font-variant:normal;font-weight:normal;font-stretch:normal;text-align:center;line-height:125%;letter-spacing:0px;word-spacing:0px;writing-mode:lr-tb;text-anchor:middle;fill:#000000;fill-opacity:1;stroke:none;font-family:LMRoman12;-inkscape-font-specification:LMRoman12"
       x="17.716536"
       y="194.63387"
       id="text5012"
       sodipodi:linespacing="125%"
       transform="translate(0,786.862)"><tspan
         sodipodi:role="line"
         id="tspan5014"
         x="17.716536"
         y="194.63387">source</tspan></text>
    <text
       xml:space="preserve"
       style="font-size:12px;font-style:normal;font-variant:normal;font-weight:normal;font-stretch:normal;text-align:center;line-height:125%;letter-spacing:0px;word-spacing:0px;writing-mode:lr-tb;text-anchor:middle;fill:#000000;fill-opacity:1;stroke:none;font-family:LMRoman12;-inkscape-font-specification:LMRoman12"
       x="70.735359"
       y="194.63387"
       id="text5016"
       sodipodi:linespacing="125%"
       transform="translate(0,786.862)"><tspan
         sodipodi:role="line"
         id="tspan5018"
         x="70.735359"
         y="194.63387">horn</tspan></text>
    <text
       xml:space="preserve"
       style="font-size:12px;font-style:normal;font-variant:normal;font-weight:normal;font-stretch:normal;text-align:center;line-height:125%;letter-spacing:0px;word-spacing:0px;writing-mode:lr-tb;text-anchor:middle;fill:#000000;fill-opacity:1;stroke:none;font-family:LMRoman12;-inkscape-font-specification:LMRoman12"
       x="132.80203"
       y="194.63387"
       id="text5020"
       sodipodi:linespacing="125%"
       transform="translate(0,786.862)"><tspan
         sodipodi:role="line"
         id="tspan5022"
         x="132.80203"
         y="194.63387">lens</tspan></text>
    <text
       xml:space="preserve"
       style="font-size:12px;font-style:normal;font-variant:normal;font-weight:normal;font-stretch:normal;text-align:center;line-height:125%;letter-spacing:0px;word-spacing:0px;writing-mode:lr-tb;text-anchor:middle;fill:#000000;fill-opacity:1;stroke:none;font-family:LMRoman12;-inkscape-font-specification:LMRoman12"
       x="292.25082"
       y="194.63387"
       id="text5024"
       sodipodi:linespacing="125%"
       transform="translate(0,786.862)"><tspan
         sodipodi:role="line"
         id="tspan5026"
         x="292.25082"
         y="194.63387">lens</tspan></text>
    <text
       xml:space="preserve"
       style="font-size:12px;font-style:normal;font-variant:normal;font-weight:normal;font-stretch:normal;text-align:center;line-height:125%;letter-spacing:0px;word-spacing:0px;writing-mode:lr-tb;text-anchor:middle;fill:#000000;fill-opacity:1;stroke:none;font-family:LMRoman12;-inkscape-font-specification:LMRoman12"
       x="354.19992"
       y="194.63387"
       id="text5028"
       sodipodi:linespacing="125%"
       transform="translate(0,786.862)"><tspan
         sodipodi:role="line"
         id="tspan5030"
         x="354.19992"
         y="194.63387">horn</tspan></text>
    <text
       xml:space="preserve"
       style="font-size:12px;font-style:normal;font-variant:normal;font-weight:normal;font-stretch:normal;text-align:center;line-height:125%;letter-spacing:0px;word-spacing:0px;writing-mode:lr-tb;text-anchor:middle;fill:#000000;fill-opacity:1;stroke:none;font-family:LMRoman12;-inkscape-font-specification:LMRoman12"
       x="407.37317"
       y="194.63387"
       id="text5032"
       sodipodi:linespacing="125%"
       transform="translate(0,786.862)"><tspan
         sodipodi:role="line"
         id="tspan5034"
         x="407.37317"
         y="194.63387">mixer</tspan></text>
    <rect
       style="fill:none;stroke:#000000;stroke-width:1.77165365;stroke-miterlimit:4;stroke-opacity:1;stroke-dasharray:none"
       id="rect5073"
       width="14.173238"
       height="74.409447"
       x="205.51181"
       y="875.19666" />
    <text
       xml:space="preserve"
       style="font-size:12px;font-style:normal;font-variant:normal;font-weight:normal;font-stretch:normal;text-align:center;line-height:125%;letter-spacing:0px;word-spacing:0px;writing-mode:lr-tb;text-anchor:middle;fill:#000000;fill-opacity:1;stroke:none;font-family:LMRoman12;-inkscape-font-specification:LMRoman12"
       x="212.55971"
       y="195.5"
       id="text5075"
       sodipodi:linespacing="125%"
       transform="translate(0,786.862)"><tspan
         sodipodi:role="line"
         id="tspan5077"
         x="212.55971"
         y="195.5">device</tspan><tspan
         sodipodi:role="line"
         x="212.55971"
         y="210.5"
         id="tspan5079">under</tspan><tspan
         sodipodi:role="line"
         x="212.55971"
         y="225.5"
         id="tspan5081">test</tspan></text>
    <path
       style="color:#000000;fill:none;stroke:#000000;stroke-width:1.77165353;stroke-linecap:butt;stroke-linejoin:miter;stroke-miterlimit:4;stroke-opacity:1;stroke-dasharray:none;stroke-dashoffset:0;marker:none;visibility:visible;display:inline;overflow:visible;enable-background:accumulate"
       d="m 159.44882,875.19665 3.54331,7.08661 -7.08662,14.17323 7.08662,14.17323 -7.08662,14.17322 7.08662,14.17323 -3.54331,7.08662"
       id="path5250"
       inkscape:connector-curvature="0" />
    <path
       inkscape:connector-curvature="0"
       id="path5252"
       d="m 265.74803,875.19665 3.54331,7.08662 -7.08662,14.17323 7.08662,14.17323 -7.08662,14.17322 7.08662,14.17323 -3.54331,7.08662"
       style="color:#000000;fill:none;stroke:#000000;stroke-width:1.77165353;stroke-linecap:butt;stroke-linejoin:miter;stroke-miterlimit:4;stroke-opacity:1;stroke-dasharray:none;stroke-dashoffset:0;marker:none;visibility:visible;display:inline;overflow:visible;enable-background:accumulate" />
  </g>
  <path
     style="fill:none;stroke:#000000;stroke-width:1.77165353;stroke-linecap:round;stroke-linejoin:round;stroke-miterlimit:4;stroke-opacity:1;stroke-dasharray:none;stroke-dashoffset:0"
     d=""
     title="x^2"
     id="path4402" />
  <path
     style="fill:none;stroke:#000000;stroke-width:1.77165353;stroke-linecap:round;stroke-linejoin:round;stroke-miterlimit:4;stroke-opacity:1;stroke-dasharray:none;stroke-dashoffset:0"
     d=""
     title="x^2"
     id="path4546" />
  <path
     style="fill:none;stroke:#000000;stroke-width:1.77165353;stroke-linecap:round;stroke-linejoin:round;stroke-miterlimit:4;stroke-opacity:1;stroke-dasharray:none;stroke-dashoffset:0"
     d=""
     title="x^2"
     id="path4640" />
  <path
     id="path4690"
     title="x**2"
     d=""
     style="fill:none;stroke:#000000;stroke-width:1.77165353;stroke-linecap:round;stroke-linejoin:round;stroke-miterlimit:4;stroke-opacity:1;stroke-dasharray:none;stroke-dashoffset:0" />
</svg>
